<svg width="45" height="39" viewBox="0 0 45 39" fill="none" xmlns="http://www.w3.org/2000/svg">
<path d="M40.1786 0H4.82143C2.08929 0 0 2.1125 0 4.875V34.125C0 36.8875 2.08929 39 4.82143 39H40.1786C42.9107 39 45 36.8875 45 34.125V4.875C45 2.1125 42.9107 0 40.1786 0ZM11.4107 5.85C11.5714 5.6875 11.5714 5.525 11.7321 5.3625C11.8929 5.2 12.0536 5.0375 12.2143 5.0375C12.8571 4.7125 13.5 4.875 13.9821 5.3625C14.1429 5.525 14.3036 5.6875 14.3036 5.85C14.4643 6.0125 14.4643 6.3375 14.4643 6.5C14.4643 6.9875 14.3036 7.3125 13.9821 7.6375C13.6607 7.9625 13.3393 8.125 12.8571 8.125C12.375 8.125 12.0536 7.9625 11.7321 7.6375C11.4107 7.3125 11.25 6.9875 11.25 6.5C11.25 6.3375 11.25 6.0125 11.4107 5.85ZM6.42857 6.5C6.42857 6.0125 6.58929 5.6875 6.91071 5.3625L7.07143 5.2C7.23214 5.2 7.23214 5.0375 7.39286 5.0375C7.55357 4.875 7.55357 4.875 7.71429 4.875C7.875 4.875 8.19643 4.875 8.35714 4.875C8.51786 4.875 8.51786 4.875 8.67857 5.0375C8.83929 5.0375 8.83929 5.2 9 5.2L9.16071 5.3625C9.32143 5.525 9.48214 5.6875 9.48214 5.85C9.64286 6.0125 9.64286 6.3375 9.64286 6.5C9.64286 6.6625 9.64286 6.9875 9.48214 7.15C9.48214 7.3125 9.32143 7.475 9.16071 7.6375C8.83929 7.9625 8.51786 8.125 8.03571 8.125C7.55357 8.125 7.23214 7.9625 6.91071 7.6375C6.58929 7.3125 6.42857 6.9875 6.42857 6.5ZM15.5893 28.1125C16.2321 28.7625 16.2321 29.7375 15.5893 30.3875C15.2679 30.7125 14.9464 30.875 14.4643 30.875C13.9821 30.875 13.6607 30.7125 13.3393 30.3875L8.51786 25.5125C7.875 24.8625 7.875 23.8875 8.51786 23.2375L13.3393 18.3625C13.9821 17.7125 14.9464 17.7125 15.5893 18.3625C16.2321 19.0125 16.2321 19.9875 15.5893 20.6375L11.8929 24.375L15.5893 28.1125ZM17.0357 7.9625C16.875 7.8 16.7143 7.8 16.5536 7.6375C16.3929 7.475 16.2321 7.3125 16.2321 7.15C16.0714 6.9875 16.0714 6.6625 16.0714 6.5C16.0714 6.3375 16.0714 6.0125 16.2321 5.85C16.3929 5.6875 16.3929 5.525 16.5536 5.3625C17.1964 4.7125 18.1607 4.7125 18.8036 5.3625C18.9643 5.525 19.125 5.6875 19.125 5.85C19.2857 6.0125 19.2857 6.3375 19.2857 6.5C19.2857 6.6625 19.2857 6.9875 19.125 7.15C18.9643 7.3125 18.9643 7.475 18.8036 7.6375C18.4821 7.9625 18.1607 8.125 17.6786 8.125C17.5179 8.125 17.1964 8.125 17.0357 7.9625ZM27.1607 18.525L20.7321 31.525C20.4107 32.175 19.9286 32.5 19.2857 32.5C18.9643 32.5 18.8036 32.5 18.6429 32.3375C17.8393 32.0125 17.5179 31.0375 18 30.225L24.4286 17.225C24.75 16.4125 25.7143 16.0875 26.5179 16.575C27.1607 16.9 27.4821 17.875 27.1607 18.525ZM36.4821 25.5125L31.6607 30.3875C31.3393 30.7125 31.0179 30.875 30.5357 30.875C30.0536 30.875 29.7321 30.7125 29.4107 30.3875C28.7679 29.7375 28.7679 28.7625 29.4107 28.1125L33.1071 24.375L29.4107 20.6375C28.7679 19.9875 28.7679 19.0125 29.4107 18.3625C30.0536 17.7125 31.0179 17.7125 31.6607 18.3625L36.4821 23.2375C37.125 23.8875 37.125 24.8625 36.4821 25.5125Z" fill="white"/>
</svg>
