<svg width="29" height="28" viewBox="0 0 29 28" fill="none" xmlns="http://www.w3.org/2000/svg">
<path d="M14.0109 6.82344C10.0422 6.81094 6.81719 10.0234 6.80469 13.9922C6.79219 17.9609 10.0047 21.1859 13.9734 21.1984C17.9422 21.2109 21.1672 17.9984 21.1797 14.0297C21.1922 10.0609 17.9797 6.83594 14.0109 6.82344ZM13.9734 9.34844C16.5484 9.33594 18.6422 11.4172 18.6547 13.9922C18.6672 16.5672 16.5859 18.6609 14.0109 18.6734C11.4359 18.6859 9.34219 16.6047 9.32969 14.0297C9.31719 11.4547 11.3984 9.36094 13.9734 9.34844ZM19.8109 6.52969C19.8109 5.60469 20.5609 4.85469 21.4859 4.85469C22.4109 4.85469 23.1609 5.60469 23.1609 6.52969C23.1609 7.45469 22.4109 8.20469 21.4859 8.20469C20.5609 8.20469 19.8109 7.45469 19.8109 6.52969ZM27.9172 8.22969C27.8109 5.98594 27.2984 3.99844 25.6547 2.36094C24.0172 0.723438 22.0297 0.210938 19.7859 0.0984375C17.4734 -0.0328125 10.5422 -0.0328125 8.22969 0.0984375C5.99219 0.204688 4.00469 0.717187 2.36094 2.35469C0.717187 3.99219 0.210938 5.97969 0.0984375 8.22344C-0.0328125 10.5359 -0.0328125 17.4672 0.0984375 19.7797C0.204688 22.0234 0.717187 24.0109 2.36094 25.6484C4.00469 27.2859 5.98594 27.7984 8.22969 27.9109C10.5422 28.0422 17.4734 28.0422 19.7859 27.9109C22.0297 27.8047 24.0172 27.2922 25.6547 25.6484C27.2922 24.0109 27.8047 22.0234 27.9172 19.7797C28.0484 17.4672 28.0484 10.5422 27.9172 8.22969ZM24.9297 22.2609C24.4422 23.4859 23.4984 24.4297 22.2672 24.9234C20.4234 25.6547 16.0484 25.4859 14.0109 25.4859C11.9734 25.4859 7.59219 25.6484 5.75469 24.9234C4.52969 24.4359 3.58594 23.4922 3.09219 22.2609C2.36094 20.4172 2.52969 16.0422 2.52969 14.0047C2.52969 11.9672 2.36719 7.58594 3.09219 5.74844C3.57969 4.52344 4.52344 3.57969 5.75469 3.08594C7.59844 2.35469 11.9734 2.52344 14.0109 2.52344C16.0484 2.52344 20.4297 2.36094 22.2672 3.08594C23.4922 3.57344 24.4359 4.51719 24.9297 5.74844C25.6609 7.59219 25.4922 11.9672 25.4922 14.0047C25.4922 16.0422 25.6609 20.4234 24.9297 22.2609Z" fill="white"/>
</svg>
