<svg width="45" height="45" viewBox="0 0 45 45" fill="none" xmlns="http://www.w3.org/2000/svg">
<path d="M23.4149 0.21594C22.8389 -0.0719801 22.1613 -0.0719801 21.5853 0.21594L1.13118 10.4432C0.43823 10.7897 0.000490651 11.498 0.000490651 12.2727C0.000490651 13.0475 0.43823 13.7558 1.13118 14.1022L21.5853 24.3295C22.1613 24.6175 22.8389 24.6175 23.4149 24.3295L43.8691 14.1022C44.5619 13.7558 44.9996 13.0475 44.9996 12.2727C44.9996 11.498 44.5619 10.7897 43.8691 10.4432L23.4149 0.21594Z" fill="white"/>
<path d="M0.216384 31.8125C0.721582 30.8021 1.9502 30.3926 2.9606 30.8976L22.5 40.6675L42.0395 30.8976C43.0499 30.3926 44.2786 30.8021 44.7836 31.8125C45.2888 32.8228 44.8793 34.0515 43.8689 34.5567L23.4147 44.784C22.8389 45.072 22.1611 45.072 21.5853 44.784L1.13114 34.5567C0.120741 34.0515 -0.288807 32.8228 0.216384 31.8125Z" fill="white"/>
<path d="M2.9606 20.6703C1.9502 20.1653 0.721582 20.5748 0.216384 21.5853C-0.288807 22.5955 0.120741 23.8242 1.13114 24.3295L21.5853 34.5567C22.1611 34.8447 22.8389 34.8447 23.4147 34.5567L43.8689 24.3295C44.8793 23.8242 45.2888 22.5955 44.7836 21.5853C44.2786 20.5748 43.0499 20.1653 42.0395 20.6703L22.5 30.4402L2.9606 20.6703Z" fill="white"/>
</svg>
