<svg width="45" height="45" viewBox="0 0 45 45" fill="none" xmlns="http://www.w3.org/2000/svg">
<path d="M38.2778 6.62013C34.6037 2.91648 29.7544 0.612694 24.566 0.105933C19.3777 -0.400829 14.1753 0.921197 9.85589 3.84409C5.53646 6.76699 2.37065 11.1076 0.904226 16.1175C-0.562193 21.1275 -0.237317 26.4929 1.82285 31.2887C2.03757 31.7344 2.10802 32.2362 2.02438 32.7239L0.0538403 42.2101C-0.0220787 42.5738 -0.00657586 42.9507 0.0989557 43.3069C0.204487 43.6631 0.39674 43.9875 0.658437 44.2509C0.872966 44.4642 1.1284 44.6317 1.40933 44.7435C1.69027 44.8553 1.99089 44.9089 2.29309 44.9012H2.74094L12.3249 42.9726C12.812 42.9139 13.306 42.9835 13.758 43.1744C18.5467 45.2377 23.904 45.563 28.9065 44.0944C33.909 42.6258 38.2431 39.4553 41.1616 35.1294C44.0802 30.8035 45.4002 25.5934 44.8942 20.3972C44.3882 15.2011 42.0879 10.3446 38.3898 6.66498L38.2778 6.62013ZM13.4893 24.7179C13.0464 24.7179 12.6135 24.5863 12.2453 24.3399C11.877 24.0935 11.59 23.7433 11.4205 23.3335C11.251 22.9237 11.2067 22.4728 11.2931 22.0378C11.3795 21.6027 11.5928 21.2032 11.9059 20.8895C12.2191 20.5759 12.6181 20.3623 13.0525 20.2758C13.4868 20.1892 13.9371 20.2337 14.3462 20.4034C14.7554 20.5731 15.1051 20.8606 15.3512 21.2294C15.5972 21.5981 15.7286 22.0317 15.7286 22.4753C15.7286 23.07 15.4926 23.6405 15.0727 24.061C14.6528 24.4816 14.0832 24.7179 13.4893 24.7179ZM22.4463 24.7179C22.0034 24.7179 21.5705 24.5863 21.2023 24.3399C20.834 24.0935 20.547 23.7433 20.3775 23.3335C20.208 22.9237 20.1637 22.4728 20.2501 22.0378C20.3365 21.6027 20.5498 21.2032 20.8629 20.8895C21.1761 20.5759 21.5751 20.3623 22.0095 20.2758C22.4438 20.1892 22.8941 20.2337 23.3032 20.4034C23.7124 20.5731 24.0621 20.8606 24.3082 21.2294C24.5542 21.5981 24.6856 22.0317 24.6856 22.4753C24.6856 23.07 24.4496 23.6405 24.0297 24.061C23.6098 24.4816 23.0402 24.7179 22.4463 24.7179ZM31.4033 24.7179C30.9604 24.7179 30.5275 24.5863 30.1592 24.3399C29.791 24.0935 29.504 23.7433 29.3345 23.3335C29.165 22.9237 29.1207 22.4728 29.2071 22.0378C29.2935 21.6027 29.5067 21.2032 29.8199 20.8895C30.1331 20.5759 30.5321 20.3623 30.9664 20.2758C31.4008 20.1892 31.8511 20.2337 32.2602 20.4034C32.6694 20.5731 33.0191 20.8606 33.2652 21.2294C33.5112 21.5981 33.6425 22.0317 33.6425 22.4753C33.6425 23.07 33.4066 23.6405 32.9867 24.061C32.5667 24.4816 31.9972 24.7179 31.4033 24.7179Z" fill="white"/>
</svg>
